<mxfile host="Electron" modified="2023-12-19T18:16:34.620Z" agent="Mozilla/5.0 (X11; Linux x86_64) AppleWebKit/537.36 (KHTML, like Gecko) draw.io/21.6.5 Chrome/114.0.5735.243 Electron/25.3.1 Safari/537.36" etag="mPbCiCUwkYumIiOdLar1" version="21.6.5" type="device">
  <diagram name="Page-1" id="Tl3OTcYbaGk_rcjHuHPC">
    <mxGraphModel dx="1694" dy="1599" grid="1" gridSize="10" guides="1" tooltips="1" connect="1" arrows="1" fold="1" page="0" pageScale="1" pageWidth="827" pageHeight="1169" math="0" shadow="0">
      <root>
        <mxCell id="0" />
        <mxCell id="1" parent="0" />
        <mxCell id="66Aq9e9d5VJEvt0azm1k-1" value="AstTypeList" style="rounded=0;whiteSpace=wrap;html=1;fontStyle=1;fillColor=#dae8fc;strokeColor=#6c8ebf;" vertex="1" parent="1">
          <mxGeometry x="40" y="-90" width="120" height="30" as="geometry" />
        </mxCell>
        <mxCell id="66Aq9e9d5VJEvt0azm1k-11" style="edgeStyle=orthogonalEdgeStyle;rounded=0;orthogonalLoop=1;jettySize=auto;html=1;entryX=0;entryY=0.5;entryDx=0;entryDy=0;fillColor=#dae8fc;strokeColor=#6c8ebf;" edge="1" parent="1" source="66Aq9e9d5VJEvt0azm1k-2" target="66Aq9e9d5VJEvt0azm1k-7">
          <mxGeometry relative="1" as="geometry">
            <Array as="points">
              <mxPoint x="250" y="-45" />
              <mxPoint x="250" y="-75" />
            </Array>
          </mxGeometry>
        </mxCell>
        <mxCell id="66Aq9e9d5VJEvt0azm1k-2" value="type" style="rounded=0;whiteSpace=wrap;html=1;fillColor=#dae8fc;strokeColor=#6c8ebf;" vertex="1" parent="1">
          <mxGeometry x="40" y="-60" width="120" height="30" as="geometry" />
        </mxCell>
        <mxCell id="66Aq9e9d5VJEvt0azm1k-6" style="edgeStyle=orthogonalEdgeStyle;rounded=0;orthogonalLoop=1;jettySize=auto;html=1;entryX=0;entryY=0.5;entryDx=0;entryDy=0;fillColor=#dae8fc;strokeColor=#6c8ebf;" edge="1" parent="1" source="66Aq9e9d5VJEvt0azm1k-3" target="66Aq9e9d5VJEvt0azm1k-1">
          <mxGeometry relative="1" as="geometry">
            <Array as="points">
              <mxPoint x="10" y="-20" />
              <mxPoint x="10" y="-75" />
            </Array>
          </mxGeometry>
        </mxCell>
        <mxCell id="66Aq9e9d5VJEvt0azm1k-3" value="next" style="rounded=0;whiteSpace=wrap;html=1;fillColor=#dae8fc;strokeColor=#6c8ebf;" vertex="1" parent="1">
          <mxGeometry x="40" y="-30" width="120" height="30" as="geometry" />
        </mxCell>
        <mxCell id="66Aq9e9d5VJEvt0azm1k-7" value="AstType" style="rounded=0;whiteSpace=wrap;html=1;fontStyle=1;fillColor=#dae8fc;strokeColor=#6c8ebf;" vertex="1" parent="1">
          <mxGeometry x="290" y="-90" width="120" height="30" as="geometry" />
        </mxCell>
        <mxCell id="66Aq9e9d5VJEvt0azm1k-13" style="edgeStyle=orthogonalEdgeStyle;rounded=0;orthogonalLoop=1;jettySize=auto;html=1;fillColor=#dae8fc;strokeColor=#6c8ebf;" edge="1" parent="1" source="66Aq9e9d5VJEvt0azm1k-8" target="66Aq9e9d5VJEvt0azm1k-12">
          <mxGeometry relative="1" as="geometry" />
        </mxCell>
        <mxCell id="66Aq9e9d5VJEvt0azm1k-8" value="typeClause" style="rounded=0;whiteSpace=wrap;html=1;fillColor=#dae8fc;strokeColor=#6c8ebf;" vertex="1" parent="1">
          <mxGeometry x="290" y="-60" width="120" height="30" as="geometry" />
        </mxCell>
        <mxCell id="66Aq9e9d5VJEvt0azm1k-10" style="edgeStyle=orthogonalEdgeStyle;rounded=0;orthogonalLoop=1;jettySize=auto;html=1;entryX=0;entryY=0.5;entryDx=0;entryDy=0;fillColor=#dae8fc;strokeColor=#6c8ebf;" edge="1" parent="1" source="66Aq9e9d5VJEvt0azm1k-9" target="66Aq9e9d5VJEvt0azm1k-7">
          <mxGeometry relative="1" as="geometry">
            <Array as="points">
              <mxPoint x="270" y="-15" />
              <mxPoint x="270" y="-75" />
            </Array>
          </mxGeometry>
        </mxCell>
        <mxCell id="66Aq9e9d5VJEvt0azm1k-9" value="next" style="rounded=0;whiteSpace=wrap;html=1;fillColor=#dae8fc;strokeColor=#6c8ebf;" vertex="1" parent="1">
          <mxGeometry x="290" y="-30" width="120" height="30" as="geometry" />
        </mxCell>
        <mxCell id="66Aq9e9d5VJEvt0azm1k-12" value="AstTypeClause" style="rounded=0;whiteSpace=wrap;html=1;fontStyle=1;fillColor=#dae8fc;strokeColor=#6c8ebf;" vertex="1" parent="1">
          <mxGeometry x="520" y="-90" width="280" height="30" as="geometry" />
        </mxCell>
        <mxCell id="66Aq9e9d5VJEvt0azm1k-15" value="integer" style="rounded=0;whiteSpace=wrap;html=1;fillColor=#dae8fc;strokeColor=#6c8ebf;" vertex="1" parent="1">
          <mxGeometry x="520" y="-60" width="60" height="30" as="geometry" />
        </mxCell>
        <mxCell id="66Aq9e9d5VJEvt0azm1k-16" value="character" style="rounded=0;whiteSpace=wrap;html=1;fillColor=#dae8fc;strokeColor=#6c8ebf;" vertex="1" parent="1">
          <mxGeometry x="580" y="-60" width="60" height="30" as="geometry" />
        </mxCell>
        <mxCell id="66Aq9e9d5VJEvt0azm1k-20" style="edgeStyle=orthogonalEdgeStyle;rounded=0;orthogonalLoop=1;jettySize=auto;html=1;fillColor=#dae8fc;strokeColor=#6c8ebf;" edge="1" parent="1" source="66Aq9e9d5VJEvt0azm1k-17" target="66Aq9e9d5VJEvt0azm1k-19">
          <mxGeometry relative="1" as="geometry" />
        </mxCell>
        <mxCell id="66Aq9e9d5VJEvt0azm1k-17" value="var" style="rounded=0;whiteSpace=wrap;html=1;fillColor=#dae8fc;strokeColor=#6c8ebf;" vertex="1" parent="1">
          <mxGeometry x="640" y="-60" width="60" height="30" as="geometry" />
        </mxCell>
        <mxCell id="66Aq9e9d5VJEvt0azm1k-22" style="edgeStyle=orthogonalEdgeStyle;rounded=0;orthogonalLoop=1;jettySize=auto;html=1;entryX=1;entryY=0.5;entryDx=0;entryDy=0;fillColor=#dae8fc;strokeColor=#6c8ebf;" edge="1" parent="1" source="66Aq9e9d5VJEvt0azm1k-18" target="66Aq9e9d5VJEvt0azm1k-21">
          <mxGeometry relative="1" as="geometry">
            <Array as="points">
              <mxPoint x="750" y="55" />
            </Array>
          </mxGeometry>
        </mxCell>
        <mxCell id="66Aq9e9d5VJEvt0azm1k-18" value="typeFunction" style="rounded=0;whiteSpace=wrap;html=1;fillColor=#dae8fc;strokeColor=#6c8ebf;" vertex="1" parent="1">
          <mxGeometry x="700" y="-60" width="100" height="30" as="geometry" />
        </mxCell>
        <mxCell id="66Aq9e9d5VJEvt0azm1k-19" value="HashSymbol" style="rounded=0;whiteSpace=wrap;html=1;fontStyle=1;fillColor=#dae8fc;strokeColor=#6c8ebf;" vertex="1" parent="1">
          <mxGeometry x="630" y="-10" width="80" height="30" as="geometry" />
        </mxCell>
        <mxCell id="66Aq9e9d5VJEvt0azm1k-21" value="AstTypeFunction" style="rounded=0;whiteSpace=wrap;html=1;fontStyle=1;fillColor=#dae8fc;strokeColor=#6c8ebf;" vertex="1" parent="1">
          <mxGeometry x="290" y="40" width="120" height="30" as="geometry" />
        </mxCell>
        <mxCell id="66Aq9e9d5VJEvt0azm1k-23" value="symbol" style="rounded=0;whiteSpace=wrap;html=1;fillColor=#dae8fc;strokeColor=#6c8ebf;" vertex="1" parent="1">
          <mxGeometry x="290" y="70" width="120" height="30" as="geometry" />
        </mxCell>
        <mxCell id="66Aq9e9d5VJEvt0azm1k-26" style="edgeStyle=orthogonalEdgeStyle;rounded=0;orthogonalLoop=1;jettySize=auto;html=1;entryX=0;entryY=0.5;entryDx=0;entryDy=0;fillColor=#dae8fc;strokeColor=#6c8ebf;" edge="1" parent="1" source="66Aq9e9d5VJEvt0azm1k-25" target="66Aq9e9d5VJEvt0azm1k-1">
          <mxGeometry relative="1" as="geometry">
            <Array as="points">
              <mxPoint x="-10" y="110" />
              <mxPoint x="-10" y="-75" />
            </Array>
          </mxGeometry>
        </mxCell>
        <mxCell id="66Aq9e9d5VJEvt0azm1k-25" value="typeList" style="rounded=0;whiteSpace=wrap;html=1;fillColor=#dae8fc;strokeColor=#6c8ebf;" vertex="1" parent="1">
          <mxGeometry x="290" y="100" width="120" height="30" as="geometry" />
        </mxCell>
        <mxCell id="66Aq9e9d5VJEvt0azm1k-27" value="AstTypeConstructor" style="rounded=0;whiteSpace=wrap;html=1;fontStyle=1;fillColor=#dae8fc;strokeColor=#6c8ebf;" vertex="1" parent="1">
          <mxGeometry x="40" y="-220" width="120" height="30" as="geometry" />
        </mxCell>
        <mxCell id="66Aq9e9d5VJEvt0azm1k-28" value="symbol" style="rounded=0;whiteSpace=wrap;html=1;fillColor=#dae8fc;strokeColor=#6c8ebf;" vertex="1" parent="1">
          <mxGeometry x="40" y="-190" width="120" height="30" as="geometry" />
        </mxCell>
        <mxCell id="66Aq9e9d5VJEvt0azm1k-30" style="edgeStyle=orthogonalEdgeStyle;rounded=0;orthogonalLoop=1;jettySize=auto;html=1;entryX=1;entryY=0.5;entryDx=0;entryDy=0;fillColor=#dae8fc;strokeColor=#6c8ebf;" edge="1" parent="1" source="66Aq9e9d5VJEvt0azm1k-29" target="66Aq9e9d5VJEvt0azm1k-1">
          <mxGeometry relative="1" as="geometry">
            <Array as="points">
              <mxPoint x="210" y="-145" />
              <mxPoint x="210" y="-75" />
            </Array>
          </mxGeometry>
        </mxCell>
        <mxCell id="66Aq9e9d5VJEvt0azm1k-29" value="typeList" style="rounded=0;whiteSpace=wrap;html=1;fillColor=#dae8fc;strokeColor=#6c8ebf;" vertex="1" parent="1">
          <mxGeometry x="40" y="-160" width="120" height="30" as="geometry" />
        </mxCell>
        <mxCell id="66Aq9e9d5VJEvt0azm1k-31" value="AstTypeBody" style="rounded=0;whiteSpace=wrap;html=1;fontStyle=1;fillColor=#dae8fc;strokeColor=#6c8ebf;" vertex="1" parent="1">
          <mxGeometry x="380" y="-220" width="120" height="30" as="geometry" />
        </mxCell>
        <mxCell id="66Aq9e9d5VJEvt0azm1k-36" style="edgeStyle=orthogonalEdgeStyle;rounded=0;orthogonalLoop=1;jettySize=auto;html=1;entryX=1;entryY=0.5;entryDx=0;entryDy=0;fillColor=#dae8fc;strokeColor=#6c8ebf;" edge="1" parent="1" source="66Aq9e9d5VJEvt0azm1k-32" target="66Aq9e9d5VJEvt0azm1k-27">
          <mxGeometry relative="1" as="geometry" />
        </mxCell>
        <mxCell id="66Aq9e9d5VJEvt0azm1k-32" value="typeConstructor" style="rounded=0;whiteSpace=wrap;html=1;fillColor=#dae8fc;strokeColor=#6c8ebf;" vertex="1" parent="1">
          <mxGeometry x="380" y="-190" width="120" height="30" as="geometry" />
        </mxCell>
        <mxCell id="66Aq9e9d5VJEvt0azm1k-34" style="edgeStyle=orthogonalEdgeStyle;rounded=0;orthogonalLoop=1;jettySize=auto;html=1;fillColor=#dae8fc;strokeColor=#6c8ebf;" edge="1" parent="1" source="66Aq9e9d5VJEvt0azm1k-33">
          <mxGeometry relative="1" as="geometry">
            <mxPoint x="500" y="-205" as="targetPoint" />
            <Array as="points">
              <mxPoint x="550" y="-145" />
              <mxPoint x="550" y="-205" />
            </Array>
          </mxGeometry>
        </mxCell>
        <mxCell id="66Aq9e9d5VJEvt0azm1k-33" value="next" style="rounded=0;whiteSpace=wrap;html=1;fillColor=#dae8fc;strokeColor=#6c8ebf;" vertex="1" parent="1">
          <mxGeometry x="380" y="-160" width="120" height="30" as="geometry" />
        </mxCell>
        <mxCell id="66Aq9e9d5VJEvt0azm1k-37" value="AstTypeDef" style="rounded=0;whiteSpace=wrap;html=1;fontStyle=1;fillColor=#dae8fc;strokeColor=#6c8ebf;" vertex="1" parent="1">
          <mxGeometry x="590" y="-370" width="120" height="30" as="geometry" />
        </mxCell>
        <mxCell id="66Aq9e9d5VJEvt0azm1k-42" style="edgeStyle=orthogonalEdgeStyle;rounded=0;orthogonalLoop=1;jettySize=auto;html=1;entryX=1;entryY=0.5;entryDx=0;entryDy=0;fillColor=#dae8fc;strokeColor=#6c8ebf;" edge="1" parent="1" source="66Aq9e9d5VJEvt0azm1k-38" target="66Aq9e9d5VJEvt0azm1k-41">
          <mxGeometry relative="1" as="geometry">
            <Array as="points">
              <mxPoint x="560" y="-325" />
              <mxPoint x="560" y="-385" />
            </Array>
          </mxGeometry>
        </mxCell>
        <mxCell id="66Aq9e9d5VJEvt0azm1k-38" value="flatType" style="rounded=0;whiteSpace=wrap;html=1;fillColor=#dae8fc;strokeColor=#6c8ebf;" vertex="1" parent="1">
          <mxGeometry x="590" y="-340" width="120" height="30" as="geometry" />
        </mxCell>
        <mxCell id="66Aq9e9d5VJEvt0azm1k-40" style="edgeStyle=orthogonalEdgeStyle;rounded=0;orthogonalLoop=1;jettySize=auto;html=1;entryX=0;entryY=0.5;entryDx=0;entryDy=0;fillColor=#dae8fc;strokeColor=#6c8ebf;" edge="1" parent="1" source="66Aq9e9d5VJEvt0azm1k-39" target="66Aq9e9d5VJEvt0azm1k-31">
          <mxGeometry relative="1" as="geometry">
            <Array as="points">
              <mxPoint x="650" y="-250" />
              <mxPoint x="360" y="-250" />
              <mxPoint x="360" y="-205" />
            </Array>
          </mxGeometry>
        </mxCell>
        <mxCell id="66Aq9e9d5VJEvt0azm1k-39" value="typeBody" style="rounded=0;whiteSpace=wrap;html=1;fillColor=#dae8fc;strokeColor=#6c8ebf;" vertex="1" parent="1">
          <mxGeometry x="590" y="-310" width="120" height="30" as="geometry" />
        </mxCell>
        <mxCell id="66Aq9e9d5VJEvt0azm1k-41" value="AstFlatType" style="rounded=0;whiteSpace=wrap;html=1;fontStyle=1;fillColor=#dae8fc;strokeColor=#6c8ebf;" vertex="1" parent="1">
          <mxGeometry x="320" y="-400" width="120" height="30" as="geometry" />
        </mxCell>
        <mxCell id="66Aq9e9d5VJEvt0azm1k-46" style="edgeStyle=orthogonalEdgeStyle;rounded=0;orthogonalLoop=1;jettySize=auto;html=1;entryX=1;entryY=0.5;entryDx=0;entryDy=0;fillColor=#dae8fc;strokeColor=#6c8ebf;" edge="1" parent="1" source="66Aq9e9d5VJEvt0azm1k-43" target="66Aq9e9d5VJEvt0azm1k-45">
          <mxGeometry relative="1" as="geometry" />
        </mxCell>
        <mxCell id="66Aq9e9d5VJEvt0azm1k-43" value="symbol" style="rounded=0;whiteSpace=wrap;html=1;fillColor=#dae8fc;strokeColor=#6c8ebf;" vertex="1" parent="1">
          <mxGeometry x="320" y="-370" width="120" height="30" as="geometry" />
        </mxCell>
        <mxCell id="66Aq9e9d5VJEvt0azm1k-44" value="typeSymbols" style="rounded=0;whiteSpace=wrap;html=1;fillColor=#dae8fc;strokeColor=#6c8ebf;" vertex="1" parent="1">
          <mxGeometry x="320" y="-340" width="120" height="30" as="geometry" />
        </mxCell>
        <mxCell id="66Aq9e9d5VJEvt0azm1k-45" value="AstTypeSymbols" style="rounded=0;whiteSpace=wrap;html=1;fontStyle=1;fillColor=#dae8fc;strokeColor=#6c8ebf;" vertex="1" parent="1">
          <mxGeometry x="80" y="-370" width="120" height="30" as="geometry" />
        </mxCell>
        <mxCell id="66Aq9e9d5VJEvt0azm1k-47" value="typeSymbol" style="rounded=0;whiteSpace=wrap;html=1;fillColor=#dae8fc;strokeColor=#6c8ebf;" vertex="1" parent="1">
          <mxGeometry x="80" y="-340" width="120" height="30" as="geometry" />
        </mxCell>
        <mxCell id="66Aq9e9d5VJEvt0azm1k-49" style="edgeStyle=orthogonalEdgeStyle;rounded=0;orthogonalLoop=1;jettySize=auto;html=1;entryX=0;entryY=0.5;entryDx=0;entryDy=0;fillColor=#dae8fc;strokeColor=#6c8ebf;" edge="1" parent="1" source="66Aq9e9d5VJEvt0azm1k-48" target="66Aq9e9d5VJEvt0azm1k-45">
          <mxGeometry relative="1" as="geometry">
            <Array as="points">
              <mxPoint x="40" y="-295" />
              <mxPoint x="40" y="-355" />
            </Array>
          </mxGeometry>
        </mxCell>
        <mxCell id="66Aq9e9d5VJEvt0azm1k-48" value="next" style="rounded=0;whiteSpace=wrap;html=1;fillColor=#dae8fc;strokeColor=#6c8ebf;" vertex="1" parent="1">
          <mxGeometry x="80" y="-310" width="120" height="30" as="geometry" />
        </mxCell>
        <mxCell id="66Aq9e9d5VJEvt0azm1k-50" value="LamTypeConstructor" style="rounded=0;whiteSpace=wrap;html=1;fontStyle=1;fillColor=#d5e8d4;strokeColor=#82b366;" vertex="1" parent="1">
          <mxGeometry x="320" y="160" width="160" height="30" as="geometry" />
        </mxCell>
        <mxCell id="66Aq9e9d5VJEvt0azm1k-51" value="name" style="rounded=0;whiteSpace=wrap;html=1;fillColor=#d5e8d4;strokeColor=#82b366;" vertex="1" parent="1">
          <mxGeometry x="320" y="190" width="160" height="30" as="geometry" />
        </mxCell>
        <mxCell id="66Aq9e9d5VJEvt0azm1k-57" style="edgeStyle=orthogonalEdgeStyle;rounded=0;orthogonalLoop=1;jettySize=auto;html=1;entryX=1;entryY=0.5;entryDx=0;entryDy=0;" edge="1" parent="1" source="66Aq9e9d5VJEvt0azm1k-52" target="66Aq9e9d5VJEvt0azm1k-54">
          <mxGeometry relative="1" as="geometry" />
        </mxCell>
        <mxCell id="66Aq9e9d5VJEvt0azm1k-52" value="type" style="rounded=0;whiteSpace=wrap;html=1;fillColor=#d5e8d4;strokeColor=#82b366;" vertex="1" parent="1">
          <mxGeometry x="320" y="220" width="160" height="30" as="geometry" />
        </mxCell>
        <mxCell id="66Aq9e9d5VJEvt0azm1k-72" style="edgeStyle=orthogonalEdgeStyle;rounded=0;orthogonalLoop=1;jettySize=auto;html=1;" edge="1" parent="1" source="66Aq9e9d5VJEvt0azm1k-53" target="66Aq9e9d5VJEvt0azm1k-65">
          <mxGeometry relative="1" as="geometry" />
        </mxCell>
        <mxCell id="66Aq9e9d5VJEvt0azm1k-53" value="args" style="rounded=0;whiteSpace=wrap;html=1;fillColor=#d5e8d4;strokeColor=#82b366;" vertex="1" parent="1">
          <mxGeometry x="320" y="250" width="160" height="30" as="geometry" />
        </mxCell>
        <mxCell id="66Aq9e9d5VJEvt0azm1k-54" value="LamType" style="rounded=0;whiteSpace=wrap;html=1;fontStyle=1;fillColor=#d5e8d4;strokeColor=#82b366;" vertex="1" parent="1">
          <mxGeometry x="120" y="220" width="120" height="30" as="geometry" />
        </mxCell>
        <mxCell id="66Aq9e9d5VJEvt0azm1k-55" value="name" style="rounded=0;whiteSpace=wrap;html=1;fillColor=#d5e8d4;strokeColor=#82b366;" vertex="1" parent="1">
          <mxGeometry x="120" y="250" width="120" height="30" as="geometry" />
        </mxCell>
        <mxCell id="66Aq9e9d5VJEvt0azm1k-64" style="edgeStyle=orthogonalEdgeStyle;rounded=0;orthogonalLoop=1;jettySize=auto;html=1;entryX=1;entryY=0.5;entryDx=0;entryDy=0;" edge="1" parent="1" source="66Aq9e9d5VJEvt0azm1k-56" target="66Aq9e9d5VJEvt0azm1k-58">
          <mxGeometry relative="1" as="geometry">
            <Array as="points">
              <mxPoint x="280" y="295" />
              <mxPoint x="280" y="365" />
            </Array>
          </mxGeometry>
        </mxCell>
        <mxCell id="66Aq9e9d5VJEvt0azm1k-56" value="args" style="rounded=0;whiteSpace=wrap;html=1;fillColor=#d5e8d4;strokeColor=#82b366;" vertex="1" parent="1">
          <mxGeometry x="120" y="280" width="120" height="30" as="geometry" />
        </mxCell>
        <mxCell id="66Aq9e9d5VJEvt0azm1k-58" value="LamTypeArgs" style="rounded=0;whiteSpace=wrap;html=1;fontStyle=1;fillColor=#d5e8d4;strokeColor=#82b366;" vertex="1" parent="1">
          <mxGeometry x="120" y="350" width="120" height="30" as="geometry" />
        </mxCell>
        <mxCell id="66Aq9e9d5VJEvt0azm1k-59" value="name" style="rounded=0;whiteSpace=wrap;html=1;fillColor=#d5e8d4;strokeColor=#82b366;" vertex="1" parent="1">
          <mxGeometry x="120" y="380" width="120" height="30" as="geometry" />
        </mxCell>
        <mxCell id="66Aq9e9d5VJEvt0azm1k-61" style="edgeStyle=orthogonalEdgeStyle;rounded=0;orthogonalLoop=1;jettySize=auto;html=1;entryX=0;entryY=0.5;entryDx=0;entryDy=0;" edge="1" parent="1" source="66Aq9e9d5VJEvt0azm1k-60" target="66Aq9e9d5VJEvt0azm1k-58">
          <mxGeometry relative="1" as="geometry">
            <Array as="points">
              <mxPoint x="80" y="425" />
              <mxPoint x="80" y="365" />
            </Array>
          </mxGeometry>
        </mxCell>
        <mxCell id="66Aq9e9d5VJEvt0azm1k-60" value="next" style="rounded=0;whiteSpace=wrap;html=1;fillColor=#d5e8d4;strokeColor=#82b366;" vertex="1" parent="1">
          <mxGeometry x="120" y="410" width="120" height="30" as="geometry" />
        </mxCell>
        <mxCell id="66Aq9e9d5VJEvt0azm1k-65" value="LamTypeConstructorArgs" style="rounded=0;whiteSpace=wrap;html=1;fontStyle=1;fillColor=#d5e8d4;strokeColor=#82b366;" vertex="1" parent="1">
          <mxGeometry x="560" y="250" width="160" height="30" as="geometry" />
        </mxCell>
        <mxCell id="66Aq9e9d5VJEvt0azm1k-71" style="edgeStyle=orthogonalEdgeStyle;rounded=0;orthogonalLoop=1;jettySize=auto;html=1;entryX=1;entryY=0.5;entryDx=0;entryDy=0;" edge="1" parent="1" source="66Aq9e9d5VJEvt0azm1k-66" target="66Aq9e9d5VJEvt0azm1k-84">
          <mxGeometry relative="1" as="geometry">
            <Array as="points">
              <mxPoint x="760" y="295" />
              <mxPoint x="760" y="390" />
              <mxPoint x="320" y="390" />
              <mxPoint x="320" y="505" />
            </Array>
          </mxGeometry>
        </mxCell>
        <mxCell id="66Aq9e9d5VJEvt0azm1k-66" value="arg" style="rounded=0;whiteSpace=wrap;html=1;fillColor=#d5e8d4;strokeColor=#82b366;" vertex="1" parent="1">
          <mxGeometry x="560" y="280" width="160" height="30" as="geometry" />
        </mxCell>
        <mxCell id="66Aq9e9d5VJEvt0azm1k-68" style="edgeStyle=orthogonalEdgeStyle;rounded=0;orthogonalLoop=1;jettySize=auto;html=1;entryX=0;entryY=0.5;entryDx=0;entryDy=0;" edge="1" parent="1" source="66Aq9e9d5VJEvt0azm1k-67" target="66Aq9e9d5VJEvt0azm1k-65">
          <mxGeometry relative="1" as="geometry">
            <Array as="points">
              <mxPoint x="520" y="325" />
              <mxPoint x="520" y="265" />
            </Array>
          </mxGeometry>
        </mxCell>
        <mxCell id="66Aq9e9d5VJEvt0azm1k-67" value="next" style="rounded=0;whiteSpace=wrap;html=1;fillColor=#d5e8d4;strokeColor=#82b366;" vertex="1" parent="1">
          <mxGeometry x="560" y="310" width="160" height="30" as="geometry" />
        </mxCell>
        <mxCell id="66Aq9e9d5VJEvt0azm1k-70" value="LamTypeConstructorType" style="rounded=0;whiteSpace=wrap;html=1;fontStyle=1;fillColor=#d5e8d4;strokeColor=#82b366;" vertex="1" parent="1">
          <mxGeometry x="400" y="430" width="320" height="30" as="geometry" />
        </mxCell>
        <mxCell id="66Aq9e9d5VJEvt0azm1k-73" value="name" style="rounded=0;whiteSpace=wrap;html=1;fillColor=#d5e8d4;strokeColor=#82b366;" vertex="1" parent="1">
          <mxGeometry x="610" y="580" width="140" height="30" as="geometry" />
        </mxCell>
        <mxCell id="66Aq9e9d5VJEvt0azm1k-75" style="edgeStyle=orthogonalEdgeStyle;rounded=0;orthogonalLoop=1;jettySize=auto;html=1;entryX=1;entryY=0.5;entryDx=0;entryDy=0;" edge="1" parent="1" source="66Aq9e9d5VJEvt0azm1k-74" target="66Aq9e9d5VJEvt0azm1k-65">
          <mxGeometry relative="1" as="geometry">
            <Array as="points">
              <mxPoint x="800" y="620" />
              <mxPoint x="800" y="265" />
            </Array>
          </mxGeometry>
        </mxCell>
        <mxCell id="66Aq9e9d5VJEvt0azm1k-74" value="args" style="rounded=0;whiteSpace=wrap;html=1;fillColor=#d5e8d4;strokeColor=#82b366;" vertex="1" parent="1">
          <mxGeometry x="610" y="610" width="140" height="30" as="geometry" />
        </mxCell>
        <mxCell id="66Aq9e9d5VJEvt0azm1k-76" value="integer" style="rounded=0;whiteSpace=wrap;html=1;fillColor=#d5e8d4;strokeColor=#82b366;" vertex="1" parent="1">
          <mxGeometry x="480" y="460" width="80" height="30" as="geometry" />
        </mxCell>
        <mxCell id="66Aq9e9d5VJEvt0azm1k-79" value="character" style="rounded=0;whiteSpace=wrap;html=1;fillColor=#d5e8d4;strokeColor=#82b366;" vertex="1" parent="1">
          <mxGeometry x="560" y="460" width="80" height="30" as="geometry" />
        </mxCell>
        <mxCell id="66Aq9e9d5VJEvt0azm1k-82" style="edgeStyle=orthogonalEdgeStyle;rounded=0;orthogonalLoop=1;jettySize=auto;html=1;entryX=0.5;entryY=0;entryDx=0;entryDy=0;" edge="1" parent="1" source="66Aq9e9d5VJEvt0azm1k-80" target="66Aq9e9d5VJEvt0azm1k-81">
          <mxGeometry relative="1" as="geometry" />
        </mxCell>
        <mxCell id="66Aq9e9d5VJEvt0azm1k-80" value="function" style="rounded=0;whiteSpace=wrap;html=1;fillColor=#d5e8d4;strokeColor=#82b366;" vertex="1" parent="1">
          <mxGeometry x="640" y="460" width="80" height="30" as="geometry" />
        </mxCell>
        <mxCell id="66Aq9e9d5VJEvt0azm1k-81" value="LamTypeFunction" style="rounded=0;whiteSpace=wrap;html=1;fontStyle=1;fillColor=#d5e8d4;strokeColor=#82b366;" vertex="1" parent="1">
          <mxGeometry x="610" y="550" width="140" height="30" as="geometry" />
        </mxCell>
        <mxCell id="66Aq9e9d5VJEvt0azm1k-83" value="var" style="rounded=0;whiteSpace=wrap;html=1;fillColor=#d5e8d4;strokeColor=#82b366;" vertex="1" parent="1">
          <mxGeometry x="400" y="460" width="80" height="30" as="geometry" />
        </mxCell>
        <mxCell id="66Aq9e9d5VJEvt0azm1k-84" value="LamTypeConstructorArg" style="rounded=0;whiteSpace=wrap;html=1;fontStyle=1;fillColor=#d5e8d4;strokeColor=#82b366;" vertex="1" parent="1">
          <mxGeometry x="120" y="490" width="160" height="30" as="geometry" />
        </mxCell>
        <mxCell id="66Aq9e9d5VJEvt0azm1k-87" style="edgeStyle=orthogonalEdgeStyle;rounded=0;orthogonalLoop=1;jettySize=auto;html=1;entryX=0;entryY=0.5;entryDx=0;entryDy=0;" edge="1" parent="1" source="66Aq9e9d5VJEvt0azm1k-85" target="66Aq9e9d5VJEvt0azm1k-70">
          <mxGeometry relative="1" as="geometry">
            <Array as="points">
              <mxPoint x="360" y="535" />
              <mxPoint x="360" y="445" />
            </Array>
          </mxGeometry>
        </mxCell>
        <mxCell id="66Aq9e9d5VJEvt0azm1k-85" value="type" style="rounded=0;whiteSpace=wrap;html=1;fillColor=#d5e8d4;strokeColor=#82b366;" vertex="1" parent="1">
          <mxGeometry x="120" y="520" width="160" height="30" as="geometry" />
        </mxCell>
        <mxCell id="66Aq9e9d5VJEvt0azm1k-88" style="edgeStyle=orthogonalEdgeStyle;rounded=0;orthogonalLoop=1;jettySize=auto;html=1;entryX=0;entryY=0.5;entryDx=0;entryDy=0;exitX=0;exitY=0.5;exitDx=0;exitDy=0;" edge="1" parent="1" source="66Aq9e9d5VJEvt0azm1k-86" target="66Aq9e9d5VJEvt0azm1k-84">
          <mxGeometry relative="1" as="geometry">
            <Array as="points">
              <mxPoint x="80" y="565" />
              <mxPoint x="80" y="505" />
            </Array>
          </mxGeometry>
        </mxCell>
        <mxCell id="66Aq9e9d5VJEvt0azm1k-86" value="next" style="rounded=0;whiteSpace=wrap;html=1;fillColor=#d5e8d4;strokeColor=#82b366;" vertex="1" parent="1">
          <mxGeometry x="120" y="550" width="160" height="30" as="geometry" />
        </mxCell>
        <mxCell id="66Aq9e9d5VJEvt0azm1k-89" value="-&amp;gt;" style="shape=note;whiteSpace=wrap;html=1;backgroundOutline=1;darkOpacity=0.05;fillColor=#fff2cc;strokeColor=#d6b656;fontSize=24;fontFamily=Courier New;size=13;" vertex="1" parent="1">
          <mxGeometry x="40" y="550" width="50" height="70" as="geometry" />
        </mxCell>
        <mxCell id="66Aq9e9d5VJEvt0azm1k-90" value="-&amp;gt;" style="shape=note;whiteSpace=wrap;html=1;backgroundOutline=1;darkOpacity=0.05;fillColor=#fff2cc;strokeColor=#d6b656;fontSize=24;fontFamily=Courier New;size=13;" vertex="1" parent="1">
          <mxGeometry x="230" y="-30" width="50" height="70" as="geometry" />
        </mxCell>
      </root>
    </mxGraphModel>
  </diagram>
</mxfile>
